<svg width="210.96" height="112" version="1.1" viewBox="0 0 55.816 29.633" xmlns="http://www.w3.org/2000/svg">
  <defs>
    <linearGradient id="linearGradient4779" x1="43" x2="69" y1="994.36" y2="1017.4" gradientTransform="matrix(.7377 0 0 .7826 3.6721 209.61)" gradientUnits="userSpaceOnUse">
      <stop style="stop-color:#000000;stop-opacity:.57647" offset="0"/>
      <stop style="stop-color:#000000;stop-opacity:.57647" offset=".47826"/>
      <stop style="stop-color:#000000;stop-opacity:0" offset="1"/>
    </linearGradient>
    <linearGradient id="linearGradient4779-2" x1="43" x2="69" y1="994.36" y2="1017.4" gradientTransform="matrix(.1987 0 0 .2108 -2.2217 -205.97)" gradientUnits="userSpaceOnUse">
      <stop style="stop-color:#000000;stop-opacity:.57647" offset="0"/>
      <stop style="stop-color:#000000;stop-opacity:.57647" offset=".47826"/>
      <stop style="stop-color:#000000;stop-opacity:0" offset="1"/>
    </linearGradient>
  </defs>
  <g transform="translate(4.293 7.6984)">
    <g transform="matrix(.28222 0 0 .28222 4.6519 -274.78)">
      <rect x="14" y="976.36" width="45" height="45" ry="1.1124e-5" style="fill:#01ff20"/>
      <rect x="15.475" y="977.84" width="42.049" height="42.049" ry="1.0395e-5" style="fill:#222222"/>
      <path d="m52.361 990.38-15.492 1.4772h-16.23l12.541 13.163-5.1639 2.338h-7.377l11.066 12.531h25.82v-24.261z" style="fill-rule:evenodd;fill:url(#linearGradient4779)"/>
      <path d="m52.361 990.38v1.4754h-31.721v-1.4754z" style="fill:#01ff20"/>
      <circle cx="50.5" cy="990.86" r="0" style="fill:#01ff20"/>
      <path d="m52.361 1005.9v1.4754h-31.721v-1.4754z" style="fill:#01ff20"/>
      <g transform="matrix(.7377 0 0 .7377 6.6168 254.62)">
        <circle cx="35.008" cy="1019.4" r="5" style="fill:#01ff20"/>
        <circle cx="35.008" cy="1019.4" r="3" style="fill:#222222"/>
      </g>
      <g transform="matrix(.7377 0 0 .7377 3.6721 256.1)">
        <circle cx="52.998" cy="996.36" r="5" style="fill:#01ff20"/>
        <circle cx="52.998" cy="996.36" r="3" style="fill:#222222"/>
      </g>
    </g>
    <g transform="translate(25.927 .76806)">
      <rect x="9.5367e-8" y="9.5367e-8" width="12.7" height="12.7" ry="3.1395e-6" style="fill:#01ff20"/>
      <rect x=".41639" y=".41639" width="11.867" height="11.867" ry="2.9337e-6" style="fill:#222222"/>
      <path d="m10.403 3.2306-3.6833 1.5024-4.3548-.1779 3.4433 4.9356c.91279 1.2705 1.0149 1.4342 2.115 2.793h4.3601v-6.5347z" style="fill-rule:evenodd;fill:url(#linearGradient4779-2)"/>
      <circle cx="24.056" cy=".28261" r="0" style="fill:#01ff20"/>
      <g transform="matrix(1.3636,0,0,1.3636,2.0205,-394.32)">
        <rect x=".3616" y="291.56" width="5.6268" height=".80383" fill="#00ff00" stroke="#00ff00" stroke-linecap="round" stroke-linejoin="round" stroke-opacity=".88303" stroke-width=".19403"/>
        <g transform="matrix(.29333 0 0 .29333 1.0324 209.96)">
          <rect x="6.606" y="279.75" width="8.7879" height="13.702" fill="none" stroke="#00ff00" stroke-linecap="round" stroke-linejoin="round" stroke-opacity=".88303"/>
          <g fill="#00ff00">
            <rect x="8.1888" y="282.68" width="5.6224" height=".75595"/>
            <rect x="8.1888" y="285.35" width="5.6224" height=".75595"/>
            <rect x="8.1888" y="288.01" width="5.6224" height=".75595"/>
            <rect x="8.1888" y="290.68" width="5.6224" height=".75595"/>
          </g>
        </g>
      </g>
    </g>
  </g>
</svg>
